<svg version="1.2" xmlns="http://www.w3.org/2000/svg" viewBox="0 0 256 237" width="256" height="237">
	<title>huggingface-svg</title>
	<defs>
		<clipPath clipPathUnits="userSpaceOnUse" id="cp1">
			<path d=""/>
		</clipPath>
	</defs>
	<style>
		.s0 { fill: #242938 } 
		.s1 { fill: #ffd21e } 
		.s2 { fill: #ff9d0b } 
		.s3 { fill: #3a3b45 } 
		.s4 { fill: #f94040 } 
	</style>
	<path id="rect20" class="s0" d="m0 40c0-22.1 17.9-40 40-40h176c22.1 0 40 17.9 40 40v157c0 22.1-17.9 40-40 40h-176c-22.1 0-40-17.9-40-40z"/>
	<path id="path2" class="s1" d="m127.2 206c-51.8 0-93.6-41.8-93.6-93.6 0-51.7 41.8-93.5 93.6-93.5 51.8 0 93.7 41.8 93.7 93.5 0 51.8-41.9 93.6-93.7 93.6z"/>
	<path id="path4" fill-rule="evenodd" class="s2" d="m127.2 216.8c-57.7 0-104.4-46.6-104.4-104.4 0-57.7 46.7-104.3 104.4-104.3 57.8 0 104.4 46.6 104.4 104.3 0 57.8-46.6 104.4-104.4 104.4zm93.7-104.4c0-51.7-41.9-93.5-93.7-93.5-51.8 0-93.6 41.8-93.6 93.5 0 51.8 41.8 93.6 93.6 93.6 51.8 0 93.7-41.8 93.7-93.6z"/>
	<path id="path6" class="s3" d="m157.6 87c3.5 1.2 4.8 8.2 8.3 6.4 6.6-3.5 9.1-11.7 5.6-18.2-3.5-6.6-11.7-9.1-18.2-5.6-6.6 3.5-9.1 11.7-5.6 18.2 1.6 3.1 6.9-1.9 9.9-0.8z"/>
	<path id="path8" class="s3" d="m94.2 87c-3.5 1.2-4.8 8.2-8.3 6.4-6.6-3.5-9.1-11.7-5.6-18.2 3.5-6.6 11.7-9.1 18.3-5.6 6.5 3.5 9 11.7 5.5 18.2-1.6 3.1-6.9-1.9-9.9-0.8z"/>
	<path id="path10" class="s3" d="m126.5 151.6c26.5 0 35.1-23.6 35.1-35.7 0-6.3-4.3-4.3-11-1-6.3 3.1-14.8 7.4-24.1 7.4-19.3 0-35-18.5-35-6.4 0 12.1 8.6 35.7 35 35.7z"/>
	<g id="Clip-Path: path15" clip-path="url(#cp1)">
		<path id="path15" class="s4" d="m127.2 179.1c12.9 0 23.4-10.5 23.4-23.4 0-10-6.4-18.6-15.3-21.9q-0.5-0.2-1-0.3c-2.2-0.7-4.6 7-7.1 7-2.3 0-4.5-7.8-6.7-7.2-9.6 2.9-16.6 11.9-16.6 22.4 0 12.9 10.4 23.4 23.3 23.4z"/>
	</g>
	<path id="path19" class="s2" d="m190.5 99.6c-4.8 0-8.7-3.9-8.7-8.7 0-4.8 3.9-8.8 8.7-8.8 4.9 0 8.8 4 8.8 8.8 0 4.8-3.9 8.7-8.8 8.7z"/>
	<path id="path21" class="s2" d="m65.2 99.6c-4.8 0-8.7-3.9-8.7-8.7 0-4.8 3.9-8.8 8.7-8.8 4.9 0 8.8 4 8.8 8.8 0 4.8-3.9 8.7-8.8 8.7z"/>
	<path id="path23" fill-rule="evenodd" class="s2" d="m57.9 132.7c2.4 1.5 5 4.2 7.7 7.6 2.5-3.5 6.1-5.8 10.1-6.5q1.2-0.1 2.3-0.1c9.2 0 14.7 7.9 16.8 15.1 1.1 2.4 6.1 13.4 13.5 20.9 13.6 13.5 15.1 27.6 4.6 42.9-6.5 9.5-17.8 14.4-33.6 14.4-8.5 0-18.5-1.5-29.4-4.3-0.1 0-7.7-2.1-16-5.4-13.3-5.3-20.1-10.2-22.9-16.5-1.8-4.1-1.7-8.5 0.4-12.4q0.3-0.6 0.6-1.1c-3.5-5.2-2.8-10.3-2.2-12.8 0.9-3.1 2.6-5.7 4.9-7.5-1.1-1.8-1.9-3.8-2.2-6-0.6-4.6 0.9-9.2 4.3-12.9 2.7-2.9 6.4-4.5 10.6-4.5 1.7 0 3.4 0.3 5.3 0.8 0.1-4.8 1.9-8.1 3.5-10.1 2.8-3.2 6.7-5 11-5 3.5 0 7.1 1.1 10.7 3.4zm-14.2 15c1.3 7.5 25.4 25.7 23 29.7-0.4 0.7-1 1-1.8 1-3.3 0-8.7-5.7-8.7-5.7 0 0-20.2-18.3-28.8-18.3-1.1 0-2 0.3-2.6 1-5.7 6.1 4.2 11.2 18.3 19.7 14.1 8.6 15.2 10.8 13.2 14q-0.2 0.3-0.7 0.3c-4 0-23-14.9-31.5-14.9-1.9 0-3.3 0.8-3.8 2.8-2.9 11.1 31.7 14.3 29.5 21.9-0.3 1.2-1.1 1.7-2.2 1.7-5 0-16.7-9.5-23.1-9.5-1.6 0-2.8 0.5-3.6 2-4.6 8.6 31.4 18.8 31.7 18.8 5.9 1.6 16.5 4 26.7 4 10 0 19.7-2.2 24.7-9.7 7.4-10.8 6.9-19-3.3-29.2-10.2-10.1-16.1-25-16.1-25 0 0-2-7.9-6.6-7.9q-0.3 0-0.6 0.1c-5.1 0.8-8.8 13.7 1.8 21.6 7 5.2 3.8 9.3-0.4 9.3-2.1 0-4.4-1-5.8-3.5-4-7.4-15.1-26.5-20.9-30.1-1.8-1.2-3.5-1.8-4.9-1.8-2.9 0-4.4 2.6-3.5 7.7z"/>
	<path id="path25" class="s1" d="m104 206.5c7.4-10.8 6.9-19-3.3-29.2-10.2-10.1-16.1-25-16.1-25 0 0-2.2-8.6-7.2-7.8-5.1 0.8-8.8 13.7 1.8 21.6 10.5 7.9-2.1 13.2-6.2 5.8-4-7.4-15.1-26.5-20.9-30.1-5.7-3.6-9.8-1.6-8.4 5.9 1.3 7.5 25.4 25.7 23 29.7-2.3 3.9-10.5-4.7-10.5-4.7 0 0-25.8-23.4-31.4-17.3-5.7 6.1 4.2 11.2 18.3 19.7 14.1 8.6 15.2 10.8 13.2 14-2 3.2-33.1-22.9-36-11.8-2.9 11.1 31.7 14.3 29.5 21.9-2.1 7.7-24.3-14.5-28.9-5.8-4.6 8.6 31.4 18.8 31.7 18.8 11.6 3.1 41.1 9.4 51.4-5.7z"/>
	<path id="path27" fill-rule="evenodd" class="s2" d="m208.6 129.3c4.3 0 8.2 1.8 11 5 1.6 2 3.4 5.3 3.5 10.1 1.9-0.5 3.6-0.8 5.3-0.8 4.1 0 7.9 1.6 10.6 4.5 3.4 3.7 4.9 8.3 4.3 12.9-0.3 2.2-1.1 4.2-2.2 6 2.3 1.8 4 4.4 4.9 7.5 0.6 2.5 1.2 7.6-2.2 12.8q0.3 0.5 0.6 1.1c2.1 3.9 2.2 8.3 0.4 12.4-2.8 6.3-9.6 11.2-22.9 16.5-8.3 3.3-15.9 5.4-16 5.4-11 2.8-20.9 4.3-29.5 4.3-15.7 0-27-4.9-33.5-14.4-10.5-15.3-9-29.4 4.6-42.9 7.4-7.5 12.4-18.5 13.5-20.9 2.1-7.2 7.6-15.1 16.8-15.1q1.1 0 2.3 0.1c4 0.7 7.5 3 10.1 6.5 2.7-3.4 5.3-6.1 7.7-7.6 3.6-2.3 7.2-3.4 10.7-3.4zm0 10.7c-1.4 0-3.1 0.6-4.9 1.8-5.8 3.6-16.9 22.7-20.9 30.1-1.4 2.5-3.7 3.5-5.8 3.5-4.2 0-7.4-4.1-0.4-9.3 10.6-7.9 6.9-20.8 1.8-21.6q-0.3-0.1-0.6-0.1c-4.6 0-6.6 7.9-6.6 7.9 0 0-6 14.9-16.1 25-10.2 10.2-10.7 18.4-3.3 29.2 5 7.5 14.7 9.7 24.6 9.7 10.3 0 20.9-2.4 26.8-4 0.3 0 36.2-10.2 31.7-18.8-0.8-1.5-2-2-3.6-2-6.4 0-18.1 9.5-23.1 9.5-1.1 0-1.9-0.5-2.2-1.7-2.2-7.6 32.4-10.8 29.5-21.9-0.5-2-1.9-2.8-3.8-2.8-8.5 0-27.5 14.9-31.5 14.9q-0.5 0-0.7-0.3c-2-3.2-0.9-5.4 13.2-14 14.1-8.5 24-13.6 18.3-19.7-0.6-0.7-1.5-1-2.6-1-8.6 0-28.8 18.3-28.8 18.3 0 0-5.4 5.7-8.7 5.7-0.8 0-1.4-0.3-1.8-1-2.4-4 21.7-22.2 23-29.7 0.9-5.1-0.6-7.7-3.5-7.7z"/>
	<path id="path29" class="s1" d="m151.8 206.5c-7.4-10.8-6.9-19 3.3-29.2 10.1-10.1 16.1-25 16.1-25 0 0 2.2-8.6 7.2-7.8 5.1 0.8 8.8 13.7-1.8 21.6-10.6 7.9 2.1 13.2 6.2 5.8 4-7.4 15.1-26.5 20.9-30.1 5.7-3.6 9.8-1.6 8.4 5.9-1.3 7.5-25.4 25.7-23 29.7 2.3 3.9 10.5-4.7 10.5-4.7 0 0 25.8-23.4 31.4-17.3 5.7 6.1-4.2 11.2-18.3 19.7-14.1 8.6-15.2 10.8-13.2 14 2 3.2 33.1-22.9 36-11.8 2.9 11.1-31.7 14.3-29.5 21.9 2.1 7.7 24.3-14.5 28.9-5.8 4.5 8.6-31.4 18.8-31.7 18.8-11.6 3.1-41.1 9.4-51.4-5.7z"/>
</svg>